# xmcd
#
# Track frame offsets:
#	150
#	10877
#	28448
#	42143
#	60374
#	77370
#	94105
#	108980
#	126514
#	143850
#	166004
#	186933
#	222458
#	227481
#	238250
#
# Disc length: 3791 seconds
#
# Revision: 0
# Processed by: cddbd v1.5.2PL0 Copyright (c) Steve Scherf et al.
# Submitted via: EZCDAudioConverter 1.3.4.1
#
DISCID=c70ecd0f
DTITLE=V/A - Dark Was The Night 1/2
DYEAR=2009
DGENRE=
TTITLE0=Dirty Projectors and David Byrne - Knotty Pine
TTITLE1=The Books featuring José González - Cello Song
TTITLE2=Feist and Ben Gibbard - Train Song
TTITLE3=Bon Iver - Brackett, WI
TTITLE4=Grizzly Bear - Deep Blue Sea
TTITLE5=The National - So Far Around The Bend
TTITLE6=Yeasayer - Tightrope
TTITLE7=My Brightest Diamond - Feeling Good
TTITLE8=Kronos Quartet - Dark Was The Night
TTITLE9=Antony and Bryce Dessner - I Was Young When I Left Home
TTITLE10=Justin Vernon and Aaron Dessner - Big Red Machine
TTITLE11=The Decemberists - Sleepless
TTITLE12=Iron and Wine - Die
TTITLE13=Grizzly Bear and Feist - Service Bell
TTITLE14=Sufjan Stevens - You Are The Blood
EXTD=
EXTT0=
EXTT1=
EXTT2=
EXTT3=
EXTT4=
EXTT5=
EXTT6=
EXTT7=
EXTT8=
EXTT9=
EXTT10=
EXTT11=
EXTT12=
EXTT13=
EXTT14=
PLAYORDER=
